{"title":"The Being 1983 [Horror] zombiRG","uid":10993200,"size":1198499188,"categoryP":"video","categoryS":"movies","magnet":"?xt=urn:btih:42507b8a95940e1e584ef90d94279e03fd53b71a&amp;dn=The+Being+1983+%5BHorror%5D+zombiRG&amp;tr=udp%3A%2F%2Ftracker.openbittorrent.com%3A80&amp;tr=udp%3A%2F%2Fopen.demonii.com%3A1337&amp;tr=udp%3A%2F%2Ftracker.coppersurfer.tk%3A6969&amp;tr=udp%3A%2F%2Fexodus.desync.com%3A6969","seeders":5,"leechers":1,"uploader":"horrorhound","files":-1,"time":1410029561,"description":"Screens: &lt;a href=&quot;\nhttp://image.bayimg.com/f0e0a67d6321c308879602c7e6df2c5bc2fd4267.jpg&quot; rel=&quot;nofollow&quot; target=&quot;_NEW&quot;&gt;\nhttp://image.bayimg.com/f0e0a67d6321c308879602c7e6df2c5bc2fd4267.jpg&lt;/a&gt; &lt;a href=&quot;\nhttp://image.bayimg.com/c3f4cdeec0c1c979f6d4878093a40ba1fcceff89.jpg&quot; rel=&quot;nofollow&quot; target=&quot;_NEW&quot;&gt;\nhttp://image.bayimg.com/c3f4cdeec0c1c979f6d4878093a40ba1fcceff89.jpg&lt;/a&gt;\n\nThanks to skot13 for the dvd9 source!\n\nFormat : AVI\nFormat/Info : Audio Video Interleave\nFormat profile : OpenDML\nFile size : 1.12 GiB\nDuration : 1h 21mn\nOverall bit rate : 1 950 Kbps\nMovie name : TheBeing.zombiRG\nWriting application : Lavf53.21.0\nOriginal source form/Name : TheBeing DVD\n\nVideo\nID : 0\nFormat : MPEG-4 Visual\nFormat profile : Advanced Simple@L5\nFormat settings, BVOP : 2\nFormat settings, QPel : No\nFormat settings, GMC : No warppoints\nFormat settings, Matrix : Default (H.263)\nMuxing mode : Packed bitstream\nCodec ID : XVID\nCodec ID/Hint : XviD\nDuration : 1h 21mn\nBit rate : 1 744 Kbps\nWidth : 720 pixels\nHeight : 404 pixels\nDisplay aspect ratio : 16:9\nFrame rate : 29.970 fps\nColor space : YUV\nChroma subsampling : 4:2:0\nBit depth : 8 bits\nScan type : Progressive\nCompression mode : Lossy\nBits/(Pixel*Frame) : 0.200\nStream size : 1 022 MiB (89%)\nWriting library : XviD 1.2.1 (UTC 2008-12-04)\n\nAudio\nID : 1\nFormat : AC-3\nFormat/Info : Audio Coding 3\nMode extension : CM (complete main)\nFormat settings, Endianness : Big\nCodec ID : 2000\nDuration : 1h 21mn\nBit rate mode : Constant\nBit rate : 192 Kbps\nChannel(s) : 1 channel\nChannel(s)_Original : 2 channels\nChannel positions : Front: L R\nSampling rate : 48.0 KHz\nBit depth : 16 bits\nCompression mode : Lossy\nStream size : 113 MiB (10%)\nAlignment : Aligned on interleaves\nInterleave, duration : 32 ms (0.96 video frame)","torrent":{"xt":"urn:btih:42507b8a95940e1e584ef90d94279e03fd53b71a","amp;dn":"The+Being+1983+%5BHorror%5D+zombiRG","amp;tr":["udp%3A%2F%2Ftracker.openbittorrent.com%3A80","udp%3A%2F%2Fopen.demonii.com%3A1337","udp%3A%2F%2Ftracker.coppersurfer.tk%3A6969","udp%3A%2F%2Fexodus.desync.com%3A6969"],"infoHash":"42507b8a95940e1e584ef90d94279e03fd53b71a","infoHashBuffer":{"type":"Buffer","data":[66,80,123,138,149,148,14,30,88,78,249,13,148,39,158,3,253,83,183,26]},"announce":[],"urlList":[]}}